<svg data-v-423bf9ae="" xmlns="http://www.w3.org/2000/svg" viewBox="0 0 263.561642523248 163" class="iconAbove"><!----><!----><!----><g data-v-423bf9ae="" id="49f2d1bb-d196-47e9-bfde-c80d87e9f914" fill="#D1A103" transform="matrix(4.566209926355878,0,0,4.566209926355878,-3.242006563380528,96.15068558730334)"><path d="M4.61 4.22L4.61 4.22L4.61 4.22Q6.34 4.22 7.49 5.47L7.49 5.47L7.49 5.47Q8.54 6.61 8.54 8.18L8.54 8.18L8.54 8.18Q8.55 12.07 8.54 12.13L8.54 12.13L8.54 12.13Q7.88 12.13 7.52 12.13L7.52 12.13L7.52 12.13Q7.52 12.08 7.52 10.42L7.52 10.42L7.52 10.42Q6.72 11.92 4.61 12.09L4.61 12.09L4.61 12.09Q2.89 12.09 1.80 10.92L1.80 10.92L1.80 10.92Q0.71 9.75 0.71 8.18L0.71 8.18L0.71 8.18Q0.71 6.62 1.74 5.48L1.74 5.48L1.74 5.48Q2.88 4.22 4.61 4.22ZM4.61 5.16L4.61 5.16L4.61 5.16Q3.42 5.16 2.56 6.05L2.56 6.05L2.56 6.05Q1.70 6.94 1.70 8.20L1.70 8.20L1.70 8.20Q1.70 9.01 2.14 9.76L2.14 9.76L2.14 9.76Q2.58 10.51 3.63 11.03L3.63 11.03L3.63 11.03Q6.27 11.62 7.38 8.63L7.38 8.63L7.38 8.63Q7.44 7.68 7.18 6.80L7.18 6.80L7.18 6.80Q6.99 6.41 6.65 6.05L6.65 6.05L6.65 6.05Q5.81 5.16 4.61 5.16ZM10.40 12.09L10.40 9.24L10.39 8.44L10.39 8.44Q10.37 7.85 10.44 7.44L10.44 7.44L10.44 7.44Q10.59 6.15 11.09 5.55L11.09 5.55L11.09 5.55Q11.59 5.02 12.10 4.74L12.10 4.74L12.10 4.74Q12.95 4.38 14.03 4.40L14.03 4.40L14.03 4.40Q14.88 4.40 15.60 4.82L15.60 4.82L15.60 4.82Q16.32 5.25 16.63 5.97L16.63 5.97L16.63 5.97Q16.94 6.69 16.94 8.23L16.94 8.23L16.94 12.09L15.98 12.09L15.98 8.51L15.98 8.51Q15.98 7.21 15.87 6.77L15.87 6.77L15.87 6.77Q15.70 6.03 15.20 5.72L15.20 5.72L15.20 5.72Q14.69 5.41 13.70 5.41L13.70 5.41L13.70 5.41Q12.82 5.41 12.14 5.91L12.14 5.91L12.14 5.91Q11.46 6.42 11.50 7.29L11.50 7.29L11.50 7.29Q11.38 7.85 11.38 9.34L11.38 9.34L11.38 12.09L10.40 12.09ZM18.99 12.09L18.99 9.24L18.98 8.44L18.98 8.44Q18.96 7.85 19.02 7.44L19.02 7.44L19.02 7.44Q19.17 6.15 19.68 5.55L19.68 5.55L19.68 5.55Q20.17 5.02 20.69 4.74L20.69 4.74L20.69 4.74Q21.53 4.38 22.62 4.40L22.62 4.40L22.62 4.40Q23.47 4.40 24.19 4.82L24.19 4.82L24.19 4.82Q24.91 5.25 25.22 5.97L25.22 5.97L25.22 5.97Q25.53 6.69 25.53 8.23L25.53 8.23L25.53 12.09L24.57 12.09L24.57 8.51L24.57 8.51Q24.57 7.21 24.46 6.77L24.46 6.77L24.46 6.77Q24.29 6.03 23.78 5.72L23.78 5.72L23.78 5.72Q23.28 5.41 22.29 5.41L22.29 5.41L22.29 5.41Q21.41 5.41 20.73 5.91L20.73 5.91L20.73 5.91Q20.04 6.42 20.09 7.29L20.09 7.29L20.09 7.29Q19.96 7.85 19.96 9.34L19.96 9.34L19.96 12.09L18.99 12.09ZM33.89 9.42L33.89 9.42L34.70 9.85L34.70 9.85Q34.31 10.64 33.78 11.12L33.78 11.12L33.78 11.12Q33.26 11.59 32.60 11.84L32.60 11.84L32.60 11.84Q31.94 12.09 31.12 12.09L31.12 12.09L31.12 12.09Q29.29 12.09 28.25 10.89L28.25 10.89L28.25 10.89Q27.22 9.69 27.22 8.18L27.22 8.18L27.22 8.18Q27.22 6.75 28.10 5.64L28.10 5.64L28.10 5.64Q29.20 4.22 31.07 4.22L31.07 4.22L31.07 4.22Q32.98 4.22 34.13 5.67L34.13 5.67L34.13 5.67Q34.94 6.70 34.95 8.23L34.95 8.23L28.21 8.23L28.21 8.23Q28.24 9.54 29.05 10.38L29.05 10.38L29.05 10.38Q29.85 11.22 31.04 11.22L31.04 11.22L31.04 11.22Q31.61 11.22 32.15 11.02L32.15 11.02L32.15 11.02Q32.69 10.81 33.07 10.49L33.07 10.49L33.07 10.49Q33.45 10.16 33.89 9.42ZM28.31 7.40L33.89 7.40L33.89 7.40Q33.70 6.63 33.33 6.17L33.33 6.17L33.33 6.17Q32.96 5.71 32.35 5.42L32.35 5.42L32.35 5.42Q31.75 5.14 31.08 5.14L31.08 5.14L31.08 5.14Q29.98 5.14 29.18 5.85L29.18 5.85L29.18 5.85Q28.61 6.37 28.31 7.40L28.31 7.40ZM36.73 12.09L36.73 1.69L37.70 1.69L37.70 7.61L41.17 4.59L42.59 4.59L39.45 7.44L42.83 12.09L41.46 12.09L38.51 8.05L37.70 8.72L37.70 12.09L36.73 12.09ZM47.58 5.23L47.58 5.23L46.97 5.87L46.97 5.87Q46.19 5.12 45.46 5.12L45.46 5.12L45.46 5.12Q44.99 5.12 44.65 5.43L44.65 5.43L44.65 5.43Q44.32 5.74 44.32 6.16L44.32 6.16L44.32 6.16Q44.32 6.51 44.60 6.84L44.60 6.84L44.60 6.84Q44.87 7.19 45.75 7.64L45.75 7.64L45.75 7.64Q46.83 8.20 47.22 8.72L47.22 8.72L47.22 8.72Q47.59 9.24 47.59 9.90L47.59 9.90L47.59 9.90Q47.59 10.81 46.95 11.45L46.95 11.45L46.95 11.45Q46.30 12.09 45.33 12.09L45.33 12.09L45.33 12.09Q44.68 12.09 44.09 11.82L44.09 11.82L44.09 11.82Q43.50 11.54 43.11 11.04L43.11 11.04L43.72 10.35L43.72 10.35Q44.46 11.18 45.29 11.18L45.29 11.18L45.29 11.18Q45.86 11.18 46.27 10.81L46.27 10.81L46.27 10.81Q46.68 10.44 46.68 9.94L46.68 9.94L46.68 9.94Q46.68 9.52 46.41 9.20L46.41 9.20L46.41 9.20Q46.14 8.88 45.20 8.39L45.20 8.39L45.20 8.39Q44.18 7.88 43.82 7.36L43.82 7.36L43.82 7.36Q43.45 6.86 43.45 6.20L43.45 6.20L43.45 6.20Q43.45 5.35 44.03 4.78L44.03 4.78L44.03 4.78Q44.62 4.22 45.50 4.22L45.50 4.22L45.50 4.22Q46.53 4.22 47.58 5.23ZM49.62 1.50L49.62 1.50L49.62 1.50Q49.95 1.50 50.19 1.74L50.19 1.74L50.19 1.74Q50.42 1.97 50.42 2.30L50.42 2.30L50.42 2.30Q50.42 2.63 50.19 2.86L50.19 2.86L50.19 2.86Q49.95 3.10 49.62 3.10L49.62 3.10L49.62 3.10Q49.29 3.10 49.06 2.86L49.06 2.86L49.06 2.86Q48.83 2.63 48.83 2.30L48.83 2.30L48.83 2.30Q48.83 1.97 49.06 1.74L49.06 1.74L49.06 1.74Q49.29 1.50 49.62 1.50ZM49.14 12.09L49.14 4.59L50.11 4.59L50.11 12.09L49.14 12.09ZM54.37 11.34L51.30 4.41L52.32 4.41L54.89 10.19L57.39 4.41L58.43 4.41L53.95 14.64L52.93 14.64L54.37 11.34Z"></path></g><!----><g data-v-423bf9ae="" id="c5dac3df-8293-441e-ac4a-55fc35838073" transform="matrix(1.1101063846305645,0,0,1.1101063846305645,76.72307529509453,-8.931720635005732)" stroke="none" fill="#D1A103"><g clip-rule="evenodd"><path d="M64.901 85.39c1.768 1.658 2.874 1.879 2.653 2.542-.221.663-.553 1.326-.663 1.547-.111.221 2.321-.221 2.211-1.105s-2.1-2.1-2.321-2.984-.442-2.874 1.879-4.974 7.958-5.858 7.958-5.858-7.516 2.321-9.837 4.863c-2.322 2.543-3.648 4.311-1.88 5.969z"></path><path d="M69.101 86.495c0 .111 1.326 1.547 1.326 1.547l-.111.995s.995-.442.995-1.547c.001-1.105-2.21-1.105-2.21-.995zM51.528 43.169c2.1 2.653 2.984 8.621 2.984 8.621s.221-.663.221-2.211-.553-5.637-3.095-8.621c-2.542-2.984-4.089-7.405-4.089-7.405s-.332.995-.111 2.1c.221 1.106 1.99 4.864 4.09 7.516zM59.154 31.564s-2.211-3.095-3.647-6.521c-1.437-3.426-1.658-7.626-1.658-7.626s-.332 4.863.442 7.184c.774 2.874 4.863 6.963 4.863 6.963zM82.917 72.348s-1.282.706-3.498 1.3c2.152-.438 3.498-1.3 3.498-1.3z"></path><path d="M64.57 71.685c-4.863-1.326-12.268-7.295-12.268-7.295s.221 0 3.647.332c3.426.332 7.516.553 7.516.553s-1.658-.221-5.195-1.326c-3.537-1.105-8.621-1.105-8.621-1.105s-2.542-1.658-5.305-3.868c-.999-.799-2.376-1.801-3.99-2.863a15 15 0 0 1 .453-.01c3.316 0 15.584 1.105 22.658 3.205 7.074 2.1 9.947 6.189 9.947 6.189s-1.879-4.2-5.637-6.742c-3.758-2.542-20.116-4.31-24.647-3.647a40.955 40.955 0 0 1-3.764.365C36.693 53.776 33.5 52 30.307 50.685c-5.637-2.321-11.495-2.211-11.495-2.211s10.279 2.984 13.816 4.974c.823.463 1.946 1.22 3.175 2.099-3.658-.021-8.229-.32-14.227-.994-10.832-1.216-18.347-6.411-18.347-6.411s2.1 1.99 6.079 4.089 10.279 4.2 14.479 4.753c3.049.401 8.888-.245 13.131-.63 3.838 2.824 8.201 6.377 8.201 6.377s-1.222.179-4.786.309c-2.162-.692-3.724-.973-3.724-.973s1.085.336 2.672 1.007c-1.914.057-4.378.098-7.535.098-10.389 0-11.826-1.658-11.826-1.658s.442.884 3.095 2.321c2.653 1.437 9.505 1.326 15.363.774 1.245-.117 2.43-.216 3.532-.299 2.774 1.437 6.028 3.58 8.184 6.489 4.421 5.968 8.068 12.489 8.289 13.595.221 1.105.221 2.653.221 2.653s.663-.884 1.658-.995c.995-.111 1.768.111 1.768.111s.442-.774-.553-1.105c-.995-.332-2.432-.221-2.432-.221s-3.979-11.274-8.842-16.247c-1.913-1.957-4.422-3.377-6.766-4.387 3.258-.216 5.44-.258 5.44-.144 0 .166 6.411 5.987 16.579 9.174 5.929 1.858 10.867 1.247 13.965.416-.617.126-1.29.222-2.029.247-3.317.11-7.959-.885-12.822-2.211zM95.185 71.795l-.38.016c.581-.383.763-1.267.269-2.338-.663-1.437-9.726-4.311-9.726-4.311s.221-.884 1.879-5.084c1.658-4.2-1.216-12.6-2.542-15.474-1.326-2.874-11.716-16.026-16.8-21.774-5.084-5.747-8.953-14.368-8.953-14.368s3.095 12.489 8.179 17.463c3.537 4.089 13.153 17.132 15.916 23.321s.884 16.8.884 16.8.332 0 1.326.221c.995.221 6.853 3.095 7.074 3.647s-1.768 1.105-1.768 1.105 1.448.591 2.617.862l-.517.022s1.326.553 1.437 1.547c.11.995-.442 3.647-.442 3.647s2.763-.663 3.095-2.542c.331-1.875-1.548-2.76-1.548-2.76z"></path></g></g><!----></svg>