<?xml version="1.0" encoding="utf-8"?>
<!-- Generator: Adobe Illustrator 24.0.1, SVG Export Plug-In . SVG Version: 6.00 Build 0)  -->
<svg version="1.1" id="Layer_1" xmlns="http://www.w3.org/2000/svg" xmlns:xlink="http://www.w3.org/1999/xlink" x="0px" y="0px"
	 viewBox="0 0 263.6 163" style="enable-background:new 0 0 263.6 163;" xml:space="preserve">
<style type="text/css">
	.st0{fill:#071B45;}
</style>
<g id="_x34_9f2d1bb-d196-47e9-bfde-c80d87e9f914" transform="matrix(4.566209926355878,0,0,4.566209926355878,-3.242006563380528,96.15068558730334)">
	<path class="st0" d="M4.6,4.2L4.6,4.2L4.6,4.2c1.2,0,2.1,0.4,2.9,1.3l0,0l0,0c0.7,0.8,1.1,1.7,1.1,2.7l0,0l0,0c0,2.6,0,3.9,0,3.9
		l0,0l0,0c-0.4,0-0.8,0-1,0l0,0l0,0c0,0,0-0.6,0-1.7l0,0l0,0C7,11.4,6,12,4.6,12.1l0,0l0,0c-1.1,0-2.1-0.4-2.8-1.2l0,0l0,0
		c-0.7-0.8-1.1-1.7-1.1-2.7l0,0l0,0c0-1,0.3-1.9,1-2.7l0,0l0,0C2.5,4.6,3.5,4.2,4.6,4.2z M4.6,5.2L4.6,5.2L4.6,5.2
		c-0.8,0-1.5,0.3-2.1,0.9l0,0l0,0C2,6.6,1.7,7.4,1.7,8.2l0,0l0,0c0,0.5,0.1,1.1,0.4,1.6l0,0l0,0c0.3,0.5,0.8,0.9,1.5,1.3l0,0l0,0
		c1.8,0.4,3-0.4,3.8-2.4l0,0l0,0c0-0.6,0-1.2-0.2-1.8l0,0l0,0C7.1,6.5,6.9,6.3,6.7,6.1l0,0l0,0C6.1,5.5,5.4,5.2,4.6,5.2z M10.4,12.1
		V9.2l0-0.8l0,0c0-0.4,0-0.7,0-1l0,0l0,0c0.1-0.9,0.3-1.5,0.7-1.9l0,0l0,0c0.3-0.4,0.7-0.6,1-0.8l0,0l0,0c0.6-0.2,1.2-0.4,1.9-0.3
		l0,0l0,0c0.6,0,1.1,0.1,1.6,0.4l0,0l0,0c0.5,0.3,0.8,0.7,1,1.1l0,0l0,0c0.2,0.5,0.3,1.2,0.3,2.3l0,0v3.9h-1V8.5l0,0
		c0-0.9,0-1.4-0.1-1.7l0,0l0,0c-0.1-0.5-0.3-0.8-0.7-1l0,0l0,0c-0.3-0.2-0.8-0.3-1.5-0.3l0,0l0,0c-0.6,0-1.1,0.2-1.6,0.5l0,0l0,0
		c-0.5,0.3-0.7,0.8-0.6,1.4l0,0l0,0c-0.1,0.4-0.1,1.1-0.1,2.1l0,0v2.7H10.4z M19,12.1V9.2l0-0.8l0,0c0-0.4,0-0.7,0-1l0,0l0,0
		c0.1-0.9,0.3-1.5,0.7-1.9l0,0l0,0c0.3-0.4,0.7-0.6,1-0.8l0,0l0,0c0.6-0.2,1.2-0.4,1.9-0.3l0,0l0,0c0.6,0,1.1,0.1,1.6,0.4l0,0l0,0
		c0.5,0.3,0.8,0.7,1,1.1l0,0l0,0c0.2,0.5,0.3,1.2,0.3,2.3l0,0v3.9h-1V8.5l0,0c0-0.9,0-1.4-0.1-1.7l0,0l0,0c-0.1-0.5-0.3-0.8-0.7-1
		l0,0l0,0c-0.3-0.2-0.8-0.3-1.5-0.3l0,0l0,0c-0.6,0-1.1,0.2-1.6,0.5l0,0l0,0c-0.5,0.3-0.7,0.8-0.6,1.4l0,0l0,0C20,7.7,20,8.3,20,9.3
		l0,0v2.7H19z M33.9,9.4L33.9,9.4l0.8,0.4l0,0c-0.3,0.5-0.6,0.9-0.9,1.3l0,0l0,0c-0.3,0.3-0.7,0.6-1.2,0.7l0,0l0,0
		c-0.4,0.2-0.9,0.3-1.5,0.3l0,0l0,0c-1.2,0-2.2-0.4-2.9-1.2l0,0l0,0c-0.7-0.8-1-1.7-1-2.7l0,0l0,0c0-1,0.3-1.8,0.9-2.5l0,0l0,0
		c0.7-0.9,1.7-1.4,3-1.4l0,0l0,0c1.3,0,2.3,0.5,3.1,1.5l0,0l0,0c0.5,0.7,0.8,1.5,0.8,2.6l0,0h-6.7l0,0c0,0.9,0.3,1.6,0.8,2.2l0,0
		l0,0c0.5,0.6,1.2,0.8,2,0.8l0,0l0,0c0.4,0,0.8-0.1,1.1-0.2l0,0l0,0c0.4-0.1,0.7-0.3,0.9-0.5l0,0l0,0C33.3,10.3,33.6,9.9,33.9,9.4z
		 M28.3,7.4h5.6l0,0c-0.1-0.5-0.3-0.9-0.6-1.2l0,0l0,0c-0.2-0.3-0.6-0.6-1-0.7l0,0l0,0c-0.4-0.2-0.8-0.3-1.3-0.3l0,0l0,0
		c-0.7,0-1.4,0.2-1.9,0.7l0,0l0,0C28.8,6.2,28.5,6.7,28.3,7.4L28.3,7.4z M36.7,12.1V1.7h1v5.9l3.5-3h1.4l-3.1,2.8l3.4,4.6h-1.4l-3-4
		l-0.8,0.7v3.4H36.7z M47.6,5.2L47.6,5.2L47,5.9l0,0c-0.5-0.5-1-0.8-1.5-0.8l0,0l0,0c-0.3,0-0.6,0.1-0.8,0.3l0,0l0,0
		c-0.2,0.2-0.3,0.4-0.3,0.7l0,0l0,0c0,0.2,0.1,0.5,0.3,0.7l0,0l0,0c0.2,0.2,0.6,0.5,1.2,0.8l0,0l0,0C46.5,8,47,8.4,47.2,8.7l0,0l0,0
		c0.2,0.3,0.4,0.7,0.4,1.2l0,0l0,0c0,0.6-0.2,1.1-0.6,1.5l0,0l0,0c-0.4,0.4-1,0.6-1.6,0.6l0,0l0,0c-0.4,0-0.8-0.1-1.2-0.3l0,0l0,0
		c-0.4-0.2-0.7-0.4-1-0.8l0,0l0.6-0.7l0,0c0.5,0.6,1,0.8,1.6,0.8l0,0l0,0c0.4,0,0.7-0.1,1-0.4l0,0l0,0c0.3-0.2,0.4-0.5,0.4-0.9l0,0
		l0,0c0-0.3-0.1-0.5-0.3-0.7l0,0l0,0c-0.2-0.2-0.6-0.5-1.2-0.8l0,0l0,0c-0.7-0.3-1.1-0.7-1.4-1l0,0l0,0c-0.2-0.3-0.4-0.7-0.4-1.2
		l0,0l0,0c0-0.6,0.2-1,0.6-1.4l0,0l0,0c0.4-0.4,0.9-0.6,1.5-0.6l0,0l0,0C46.2,4.2,46.9,4.6,47.6,5.2z M49.6,1.5L49.6,1.5L49.6,1.5
		c0.2,0,0.4,0.1,0.6,0.2l0,0l0,0c0.2,0.2,0.2,0.3,0.2,0.6l0,0l0,0c0,0.2-0.1,0.4-0.2,0.6l0,0l0,0C50,3,49.8,3.1,49.6,3.1l0,0l0,0
		c-0.2,0-0.4-0.1-0.6-0.2l0,0l0,0c-0.2-0.2-0.2-0.3-0.2-0.6l0,0l0,0c0-0.2,0.1-0.4,0.2-0.6l0,0l0,0C49.2,1.6,49.4,1.5,49.6,1.5z
		 M49.1,12.1V4.6h1v7.5H49.1z M54.4,11.3l-3.1-6.9h1l2.6,5.8l2.5-5.8h1l-4.5,10.2h-1L54.4,11.3z"/>
</g>
<g id="c5dac3df-8293-441e-ac4a-55fc35838073" transform="matrix(1.1101063846305645,0,0,1.1101063846305645,76.72307529509453,-8.931720635005732)">
	<g>
		<path class="st0" d="M64.9,85.4c1.8,1.7,2.9,1.9,2.7,2.5s-0.6,1.3-0.7,1.5c-0.1,0.2,2.3-0.2,2.2-1.1s-2.1-2.1-2.3-3
			s-0.4-2.9,1.9-5s8-5.9,8-5.9s-7.5,2.3-9.8,4.9C64.5,82,63.1,83.7,64.9,85.4z"/>
		<path class="st0" d="M69.1,86.5c0,0.1,1.3,1.5,1.3,1.5l-0.1,1c0,0,1-0.4,1-1.5C71.3,86.4,69.1,86.4,69.1,86.5z M51.5,43.2
			c2.1,2.7,3,8.6,3,8.6s0.2-0.7,0.2-2.2s-0.6-5.6-3.1-8.6c-2.5-3-4.1-7.4-4.1-7.4s-0.3,1-0.1,2.1C47.7,36.8,49.4,40.5,51.5,43.2z
			 M59.2,31.6c0,0-2.2-3.1-3.6-6.5c-1.4-3.4-1.7-7.6-1.7-7.6s-0.3,4.9,0.4,7.2C55.1,27.5,59.2,31.6,59.2,31.6z M82.9,72.3
			c0,0-1.3,0.7-3.5,1.3C81.6,73.2,82.9,72.3,82.9,72.3z"/>
		<path class="st0" d="M64.6,71.7c-4.9-1.3-12.3-7.3-12.3-7.3s0.2,0,3.6,0.3c3.4,0.3,7.5,0.6,7.5,0.6s-1.7-0.2-5.2-1.3
			c-3.5-1.1-8.6-1.1-8.6-1.1s-2.5-1.7-5.3-3.9c-1-0.8-2.4-1.8-4-2.9c0.2,0,0.3,0,0.5,0c3.3,0,15.6,1.1,22.7,3.2
			c7.1,2.1,9.9,6.2,9.9,6.2s-1.9-4.2-5.6-6.7s-20.1-4.3-24.6-3.6c-1.2,0.2-2.5,0.3-3.8,0.4c-2.7-1.7-5.9-3.5-9.1-4.8
			c-5.6-2.3-11.5-2.2-11.5-2.2s10.3,3,13.8,5c0.8,0.5,1.9,1.2,3.2,2.1c-3.7,0-8.2-0.3-14.2-1c-10.8-1.2-18.3-6.4-18.3-6.4
			s2.1,2,6.1,4.1c4,2.1,10.3,4.2,14.5,4.8c3,0.4,8.9-0.2,13.1-0.6c3.8,2.8,8.2,6.4,8.2,6.4s-1.2,0.2-4.8,0.3c-2.2-0.7-3.7-1-3.7-1
			s1.1,0.3,2.7,1c-1.9,0.1-4.4,0.1-7.5,0.1c-10.4,0-11.8-1.7-11.8-1.7s0.4,0.9,3.1,2.3c2.7,1.4,9.5,1.3,15.4,0.8
			c1.2-0.1,2.4-0.2,3.5-0.3c2.8,1.4,6,3.6,8.2,6.5c4.4,6,8.1,12.5,8.3,13.6c0.2,1.1,0.2,2.7,0.2,2.7s0.7-0.9,1.7-1
			c1-0.1,1.8,0.1,1.8,0.1s0.4-0.8-0.6-1.1c-1-0.3-2.4-0.2-2.4-0.2s-4-11.3-8.8-16.2c-1.9-2-4.4-3.4-6.8-4.4c3.3-0.2,5.4-0.3,5.4-0.1
			c0,0.2,6.4,6,16.6,9.2c5.9,1.9,10.9,1.2,14,0.4c-0.6,0.1-1.3,0.2-2,0.2C74.1,74,69.4,73,64.6,71.7z M95.2,71.8l-0.4,0
			c0.6-0.4,0.8-1.3,0.3-2.3c-0.7-1.4-9.7-4.3-9.7-4.3s0.2-0.9,1.9-5.1S86,47.5,84.7,44.6c-1.3-2.9-11.7-16-16.8-21.8
			c-5.1-5.7-9-14.4-9-14.4S62,21,67.1,25.9C70.6,30,80.3,43.1,83,49.2c2.8,6.2,0.9,16.8,0.9,16.8s0.3,0,1.3,0.2
			c1,0.2,6.9,3.1,7.1,3.6S90.5,71,90.5,71s1.4,0.6,2.6,0.9l-0.5,0c0,0,1.3,0.6,1.4,1.5c0.1,1-0.4,3.6-0.4,3.6s2.8-0.7,3.1-2.5
			C97.1,72.7,95.2,71.8,95.2,71.8L95.2,71.8z"/>
	</g>
</g>
</svg>
